<svg width="25" height="24" viewBox="0 0 25 24" fill="none" xmlns="http://www.w3.org/2000/svg">
<g clip-path="url(#clip0_33_1204)">
<path d="M12.4326 22C6.90962 22 2.43262 17.523 2.43262 12C2.43262 6.477 6.90962 2 12.4326 2C17.9556 2 22.4326 6.477 22.4326 12C22.4326 17.523 17.9556 22 12.4326 22ZM12.4326 20C14.5543 20 16.5892 19.1571 18.0895 17.6569C19.5898 16.1566 20.4326 14.1217 20.4326 12C20.4326 9.87827 19.5898 7.84344 18.0895 6.34315C16.5892 4.84285 14.5543 4 12.4326 4C10.3109 4 8.27605 4.84285 6.77576 6.34315C5.27547 7.84344 4.43262 9.87827 4.43262 12C4.43262 14.1217 5.27547 16.1566 6.77576 17.6569C8.27605 19.1571 10.3109 20 12.4326 20ZM11.4356 16L7.19262 11.757L8.60662 10.343L11.4356 13.172L17.0916 7.515L18.5066 8.929L11.4356 16Z" fill="#8C4CF5"/>
</g>
<defs>
<clipPath id="clip0_33_1204">
<rect width="24" height="24" fill="white" transform="translate(0.432617)"/>
</clipPath>
</defs>
</svg>
