<svg width="598" height="102" viewBox="0 0 598 102" fill="none" xmlns="http://www.w3.org/2000/svg">
<path d="M228.474 8.48267L186.151 50.8055L228.474 93.1283" stroke="#8C4CF5" stroke-width="9.40345" stroke-linecap="round" stroke-linejoin="round"/>
<path d="M271.297 14.5518C274.068 13.5632 277.073 13.4384 279.916 14.1938C282.758 14.9492 285.305 16.5492 287.22 18.7825C289.134 21.0158 290.325 23.7773 290.637 26.7022C290.949 29.6271 290.366 32.5777 288.965 35.1643L333.442 79.6453L327.57 85.518L283.088 41.0369C280.501 42.432 277.552 43.0105 274.63 42.6961C271.707 42.3818 268.949 41.1894 266.717 39.276C264.486 37.3626 262.887 34.8181 262.13 31.9778C261.374 29.1375 261.496 26.1346 262.48 23.3649L271.771 32.6557C272.346 33.2507 273.033 33.7253 273.793 34.0518C274.553 34.3783 275.371 34.5502 276.198 34.5574C277.025 34.5646 277.845 34.4069 278.611 34.0937C279.377 33.7805 280.072 33.3179 280.657 32.7329C281.242 32.148 281.705 31.4524 282.018 30.6868C282.331 29.9212 282.489 29.1008 282.482 28.2736C282.474 27.4464 282.303 26.629 281.976 25.8689C281.65 25.1088 281.175 24.4214 280.58 23.8467L271.293 14.5476L271.297 14.5518ZM314.354 22.3765L327.57 15.0336L333.442 20.9062L326.099 34.1218L318.756 35.592L309.952 44.401L304.075 38.5284L312.884 29.7194L314.354 22.3765V22.3765ZM286.453 56.1505L292.325 62.0232L270.301 84.0478C269.552 84.7987 268.544 85.2348 267.484 85.2665C266.424 85.2982 265.392 84.9233 264.6 84.2185C263.807 83.5137 263.314 82.5325 263.222 81.476C263.13 80.4195 263.446 79.3678 264.104 78.5364L264.428 78.1751L286.453 56.1505Z" fill="#DD226D"/>
<path d="M369.527 8.48267L411.85 50.8055L369.527 93.1283" stroke="#8C4CF5" stroke-width="9.40345" stroke-linecap="round" stroke-linejoin="round"/>
</svg>
