<svg width="478" height="101" viewBox="0 0 478 101" fill="none" xmlns="http://www.w3.org/2000/svg">
<path d="M182.714 16.6204L148.938 50.3972L182.714 84.1741" stroke="#8C4CF5" stroke-width="7.50475" stroke-linecap="round" stroke-linejoin="round"/>
<g clip-path="url(#clip0_33_2028)">
<path d="M263.009 26.3896C267.855 31.2488 269.678 37.9675 268.478 44.2221C270.36 44.7525 272.144 45.7568 273.629 47.2318C278.282 51.8523 278.282 59.3433 273.629 63.9605L255.574 81.8859L245.557 71.9421L235.686 81.8362L207.579 53.6886C200.608 45.8794 200.87 33.8872 208.364 26.3896C215.872 18.8854 227.881 18.6334 235.69 25.6339C243.476 18.6434 255.508 18.8754 263.009 26.3896ZM242.19 51.9385C240.148 53.9637 240.148 57.2319 242.19 59.2571L255.574 72.5453L268.958 59.2571C271 57.2319 271 53.9637 268.958 51.9385C266.89 49.8835 263.516 49.8835 261.441 51.9451L255.567 57.7589L250.904 53.1318L249.701 51.9385C247.632 49.8835 244.258 49.8835 242.19 51.9385ZM213.054 31.0798C208.116 36.0185 207.867 43.9238 212.418 49.1476L235.686 72.4525L240.854 67.2751L237.519 63.9605C232.866 59.3433 232.866 51.8523 237.519 47.2318C242.173 42.6145 249.717 42.6145 254.371 47.2318L255.574 48.425L256.777 47.2318C258.186 45.8363 259.86 44.8618 261.633 44.3083C263.012 39.7773 261.892 34.6562 258.315 31.0731C253.343 26.0946 245.322 25.8924 240.118 30.566L235.693 34.5369L231.265 30.5693C226.044 25.8891 218.04 26.0946 213.054 31.0798Z" fill="#DD226D"/>
</g>
<path d="M295.286 16.6204L329.062 50.3972L295.286 84.1741" stroke="#8C4CF5" stroke-width="7.50475" stroke-linecap="round" stroke-linejoin="round"/>
<defs>
<clipPath id="clip0_33_2028">
<rect width="79.5503" height="79.5503" fill="white" transform="translate(199.226 10.6221)"/>
</clipPath>
</defs>
</svg>
