<svg width="33" height="33" viewBox="0 0 33 33" fill="none" xmlns="http://www.w3.org/2000/svg">
<path d="M9.89994 19.4389L7.07328 22.2682L10.8439 26.0388L25.9279 10.9535L22.1573 7.18418L19.3266 10.0109L21.2133 11.8962L19.3266 13.7842L17.4413 11.8975L15.5559 13.7842L17.4413 15.6695L15.5559 17.5549L13.6706 15.6695L11.7839 17.5549L13.6706 19.4402L11.7839 21.3269L9.89994 19.4375V19.4389ZM23.0999 4.35485L28.7559 10.0109C29.0059 10.2609 29.1463 10.6 29.1463 10.9535C29.1463 11.3071 29.0059 11.6461 28.7559 11.8962L11.7853 28.8668C11.5352 29.1168 11.1962 29.2572 10.8426 29.2572C10.4891 29.2572 10.15 29.1168 9.89994 28.8668L4.24394 23.2109C3.99398 22.9608 3.85356 22.6217 3.85356 22.2682C3.85356 21.9146 3.99398 21.5756 4.24394 21.3255L21.2146 4.35485C21.4646 4.10489 21.8037 3.96447 22.1573 3.96447C22.5108 3.96447 22.8499 4.10489 23.0999 4.35485ZM19.3266 25.0949L21.2133 23.2095L24.2026 26.2002H26.0879V24.3148L23.0986 21.3242L24.9839 19.4389L28.4999 22.9535V28.6109H22.8439L19.3279 25.0949H19.3266ZM8.01461 13.7815L4.24261 10.0109C4.11864 9.88702 4.0203 9.73997 3.9532 9.5781C3.8861 9.41624 3.85156 9.24274 3.85156 9.06752C3.85156 8.8923 3.8861 8.71879 3.9532 8.55693C4.0203 8.39507 4.11864 8.24801 4.24261 8.12418L8.01461 4.35352C8.26465 4.10356 8.60373 3.96313 8.95728 3.96313C9.31083 3.96313 9.64991 4.10356 9.89994 4.35352L13.6733 8.12418L11.7853 10.0109L8.95728 7.18152L7.07194 9.06818L9.89994 11.8949L8.01461 13.7815Z" fill="white"/>
</svg>
