<svg width="25" height="29" viewBox="0 0 25 29" fill="none" xmlns="http://www.w3.org/2000/svg">
<path d="M14.0833 25.6109V28.9443L10.0833 26.2776L6.08333 28.9443V25.6109H5.41667C4.17899 25.6109 2.99201 25.1193 2.11684 24.2441C1.24167 23.3689 0.75 22.1819 0.75 20.9443V4.27759C0.75 3.21672 1.17143 2.19931 1.92157 1.44916C2.67172 0.699015 3.68913 0.277588 4.75 0.277588H23.4167C23.7703 0.277588 24.1094 0.418064 24.3595 0.668112C24.6095 0.918161 24.75 1.2573 24.75 1.61092V24.2776C24.75 24.6312 24.6095 24.9704 24.3595 25.2204C24.1094 25.4704 23.7703 25.6109 23.4167 25.6109H14.0833ZM14.0833 22.9443H22.0833V18.9443H5.41667C4.88623 18.9443 4.37753 19.155 4.00245 19.53C3.62738 19.9051 3.41667 20.4138 3.41667 20.9443C3.41667 21.4747 3.62738 21.9834 4.00245 22.3585C4.37753 22.7335 4.88623 22.9443 5.41667 22.9443H6.08333V20.2776H14.0833V22.9443ZM22.0833 16.2776V2.94425H4.75V16.3243C4.97084 16.2929 5.19362 16.2773 5.41667 16.2776H22.0833ZM6.08333 4.27759H8.75V6.94425H6.08333V4.27759ZM6.08333 8.27759H8.75V10.9443H6.08333V8.27759ZM6.08333 12.2776H8.75V14.9443H6.08333V12.2776Z" fill="#DD226D"/>
</svg>
