<svg width="25" height="25" viewBox="0 0 25 25" fill="none" xmlns="http://www.w3.org/2000/svg">
<path d="M5.55594 8.33093C5.78723 9.17739 6.29034 9.92434 6.98782 10.4568C7.6853 10.9892 8.53846 11.2776 9.41594 11.2776H14.7493C16.32 11.2777 17.8402 11.8323 19.042 12.8436C20.2438 13.8549 21.0501 15.258 21.3186 16.8056C22.2235 17.1008 22.9936 17.709 23.4905 18.5209C23.9874 19.3328 24.1785 20.2953 24.0296 21.2354C23.8808 22.1756 23.4016 23.0319 22.6782 23.6506C21.9548 24.2692 21.0345 24.6097 20.0826 24.6109C19.1513 24.6117 18.249 24.2874 17.5311 23.6941C16.8133 23.1008 16.325 22.2756 16.1504 21.3608C15.9758 20.446 16.1259 19.499 16.5748 18.683C17.0237 17.867 17.7432 17.2332 18.6093 16.8909C18.378 16.0445 17.8749 15.2975 17.1774 14.7651C16.4799 14.2326 15.6268 13.9442 14.7493 13.9443H9.41594C7.97313 13.9464 6.56892 13.4783 5.41594 12.6109V16.8376C6.30593 17.1521 7.05607 17.7712 7.53376 18.5853C8.01144 19.3995 8.18592 20.3563 8.02636 21.2867C7.86679 22.217 7.38345 23.061 6.66177 23.6694C5.94009 24.2779 5.02655 24.6116 4.08261 24.6116C3.13867 24.6116 2.22513 24.2779 1.50345 23.6694C0.781769 23.061 0.298429 22.217 0.138862 21.2867C-0.020705 20.3563 0.153776 19.3995 0.631464 18.5853C1.10915 17.7712 1.85929 17.1521 2.74928 16.8376V8.38427C1.86524 8.07215 1.11888 7.45952 0.640414 6.65329C0.16195 5.84706 -0.0182269 4.89842 0.131323 3.97292C0.280873 3.04741 0.750653 2.20379 1.45869 1.58929C2.16672 0.974779 3.06805 0.628398 4.0054 0.610586C4.94274 0.592774 5.85658 0.904663 6.58745 1.49183C7.31832 2.07899 7.81981 2.90415 8.00441 3.82331C8.18902 4.74247 8.04501 5.69726 7.59752 6.52109C7.15003 7.34491 6.42748 7.98545 5.55594 8.33093ZM4.08261 5.94427C4.43623 5.94427 4.77537 5.80379 5.02542 5.55374C5.27547 5.3037 5.41594 4.96456 5.41594 4.61094C5.41594 4.25731 5.27547 3.91817 5.02542 3.66813C4.77537 3.41808 4.43623 3.2776 4.08261 3.2776C3.72899 3.2776 3.38985 3.41808 3.1398 3.66813C2.88975 3.91817 2.74928 4.25731 2.74928 4.61094C2.74928 4.96456 2.88975 5.3037 3.1398 5.55374C3.38985 5.80379 3.72899 5.94427 4.08261 5.94427ZM4.08261 21.9443C4.43623 21.9443 4.77537 21.8038 5.02542 21.5537C5.27547 21.3037 5.41594 20.9646 5.41594 20.6109C5.41594 20.2573 5.27547 19.9182 5.02542 19.6681C4.77537 19.4181 4.43623 19.2776 4.08261 19.2776C3.72899 19.2776 3.38985 19.4181 3.1398 19.6681C2.88975 19.9182 2.74928 20.2573 2.74928 20.6109C2.74928 20.9646 2.88975 21.3037 3.1398 21.5537C3.38985 21.8038 3.72899 21.9443 4.08261 21.9443ZM20.0826 21.9443C20.4362 21.9443 20.7754 21.8038 21.0254 21.5537C21.2755 21.3037 21.4159 20.9646 21.4159 20.6109C21.4159 20.2573 21.2755 19.9182 21.0254 19.6681C20.7754 19.4181 20.4362 19.2776 20.0826 19.2776C19.729 19.2776 19.3898 19.4181 19.1398 19.6681C18.8897 19.9182 18.7493 20.2573 18.7493 20.6109C18.7493 20.9646 18.8897 21.3037 19.1398 21.5537C19.3898 21.8038 19.729 21.9443 20.0826 21.9443Z" fill="#DD226D"/>
</svg>
