<svg width="28" height="27" viewBox="0 0 28 27" fill="none" xmlns="http://www.w3.org/2000/svg">
<path d="M14.2503 0.277588C21.6143 0.277588 27.5837 6.24692 27.5837 13.6109C27.5837 20.9749 21.6143 26.9443 14.2503 26.9443C6.88633 26.9443 0.916992 20.9749 0.916992 13.6109C0.916992 6.24692 6.88633 0.277588 14.2503 0.277588ZM14.2503 2.94425C8.35966 2.94425 3.58366 7.72025 3.58366 13.6109C3.58366 19.5016 8.35966 24.2776 14.2503 24.2776C20.141 24.2776 24.917 19.5016 24.917 13.6109C24.917 7.72025 20.141 2.94425 14.2503 2.94425ZM14.2503 4.27759C15.6077 4.27759 16.897 4.56692 18.061 5.08825L15.977 7.17092C15.4263 7.02425 14.8477 6.94425 14.2503 6.94425C10.569 6.94425 7.58366 9.92959 7.58366 13.6109C7.58366 15.4509 8.33033 17.1176 9.53566 18.3256L7.65033 20.2109L7.44233 19.9963C5.87699 18.3269 4.91699 16.0803 4.91699 13.6109C4.91699 8.45625 9.09566 4.27759 14.2503 4.27759ZM22.773 9.80159C23.293 10.9643 23.5837 12.2549 23.5837 13.6109C23.5837 16.1883 22.5383 18.5216 20.8503 20.2109L18.965 18.3256C20.1703 17.1176 20.917 15.4509 20.917 13.6109C20.917 13.0136 20.8383 12.4349 20.6903 11.8843L22.773 9.80159ZM19.9063 6.06825L21.793 7.95359L16.8277 12.9216C16.8863 13.1416 16.917 13.3723 16.917 13.6109C16.917 15.0843 15.7237 16.2776 14.2503 16.2776C12.777 16.2776 11.5837 15.0843 11.5837 13.6109C11.5837 12.1376 12.777 10.9443 14.2503 10.9443C14.489 10.9443 14.7197 10.9749 14.9397 11.0336L19.9077 6.06825H19.9063Z" fill="#DD226D"/>
</svg>
