<svg width="25" height="25" viewBox="0 0 25 25" fill="none" xmlns="http://www.w3.org/2000/svg">
<path d="M3.08268 7.27751H21.7493V3.27751H3.08268V7.27751ZM15.0827 21.9442V9.94417H3.08268V21.9442H15.0827ZM17.7493 21.9442H21.7493V9.94417H17.7493V21.9442ZM1.74935 0.61084H23.0827C23.4363 0.61084 23.7754 0.751316 24.0255 1.00136C24.2755 1.25141 24.416 1.59055 24.416 1.94417V23.2775C24.416 23.6311 24.2755 23.9703 24.0255 24.2203C23.7754 24.4704 23.4363 24.6108 23.0827 24.6108H1.74935C1.39573 24.6108 1.05659 24.4704 0.80654 24.2203C0.556491 23.9703 0.416016 23.6311 0.416016 23.2775V1.94417C0.416016 1.59055 0.556491 1.25141 0.80654 1.00136C1.05659 0.751316 1.39573 0.61084 1.74935 0.61084Z" fill="#DD226D"/>
</svg>
