<svg width="24" height="25" viewBox="0 0 24 25" fill="none" xmlns="http://www.w3.org/2000/svg">
<path opacity="0.1" fill-rule="evenodd" clip-rule="evenodd" d="M0 12.3291C0 5.70168 5.37258 0.329102 12 0.329102C18.6274 0.329102 24 5.70168 24 12.3291C24 18.9565 18.6274 24.3291 12 24.3291C5.37258 24.3291 0 18.9565 0 12.3291Z" fill="#F4F5F7"/>
<path fill-rule="evenodd" clip-rule="evenodd" d="M12.0002 5.9292C10.2621 5.9292 10.0439 5.9368 9.36125 5.96787C8.67991 5.99907 8.21484 6.10693 7.8079 6.2652C7.38696 6.42867 7.02989 6.64734 6.67415 7.00321C6.31815 7.35895 6.09948 7.71602 5.93548 8.13682C5.77681 8.54389 5.66881 9.0091 5.63814 9.69017C5.60761 10.3728 5.59961 10.5911 5.59961 12.3293C5.59961 14.0674 5.60734 14.2849 5.63828 14.9676C5.66961 15.6489 5.77748 16.114 5.93561 16.5209C6.09921 16.9418 6.31788 17.2989 6.67375 17.6547C7.02936 18.0107 7.38643 18.2299 7.8071 18.3933C8.2143 18.5516 8.67951 18.6595 9.36072 18.6907C10.0434 18.7217 10.2614 18.7293 11.9994 18.7293C13.7377 18.7293 13.9552 18.7217 14.6378 18.6907C15.3192 18.6595 15.7848 18.5516 16.192 18.3933C16.6128 18.2299 16.9693 18.0107 17.3249 17.6547C17.6809 17.2989 17.8996 16.9418 18.0636 16.521C18.2209 16.114 18.3289 15.6488 18.3609 14.9677C18.3916 14.285 18.3996 14.0674 18.3996 12.3293C18.3996 10.5911 18.3916 10.373 18.3609 9.6903C18.3289 9.00896 18.2209 8.54389 18.0636 8.13696C17.8996 7.71602 17.6809 7.35895 17.3249 7.00321C16.9689 6.64721 16.6129 6.42854 16.1916 6.2652C15.7836 6.10693 15.3182 5.99907 14.6369 5.96787C13.9542 5.9368 13.7369 5.9292 11.9982 5.9292H12.0002ZM11.426 7.08253C11.5964 7.08226 11.7866 7.08253 12.0002 7.08253C13.709 7.08253 13.9115 7.08866 14.5863 7.11933C15.2103 7.14786 15.549 7.25213 15.7746 7.33973C16.0733 7.45573 16.2862 7.5944 16.5101 7.8184C16.7341 8.0424 16.8728 8.25574 16.989 8.55441C17.0766 8.77974 17.181 9.11841 17.2094 9.74242C17.2401 10.4171 17.2468 10.6198 17.2468 12.3278C17.2468 14.0358 17.2401 14.2385 17.2094 14.9131C17.1809 15.5371 17.0766 15.8758 16.989 16.1012C16.873 16.3998 16.7341 16.6125 16.5101 16.8364C16.2861 17.0604 16.0734 17.199 15.7746 17.315C15.5493 17.403 15.2103 17.507 14.5863 17.5356C13.9117 17.5662 13.709 17.5729 12.0002 17.5729C10.2912 17.5729 10.0887 17.5662 9.41402 17.5356C8.79002 17.5068 8.45134 17.4025 8.22561 17.3149C7.92694 17.1989 7.7136 17.0602 7.4896 16.8362C7.2656 16.6122 7.12693 16.3994 7.01066 16.1006C6.92306 15.8753 6.81866 15.5366 6.79026 14.9126C6.75959 14.2379 6.75346 14.0353 6.75346 12.3262C6.75346 10.6171 6.75959 10.4155 6.79026 9.74082C6.81879 9.11681 6.92306 8.77814 7.01066 8.55254C7.12666 8.25387 7.2656 8.04054 7.4896 7.81653C7.7136 7.59253 7.92694 7.45386 8.22561 7.3376C8.45121 7.24959 8.79002 7.14559 9.41402 7.11693C10.0044 7.09026 10.2332 7.08226 11.426 7.08093V7.08253ZM15.4165 8.14521C14.9925 8.14521 14.6485 8.48881 14.6485 8.91295C14.6485 9.33695 14.9925 9.68096 15.4165 9.68096C15.8405 9.68096 16.1845 9.33695 16.1845 8.91295C16.1845 8.48894 15.8405 8.14521 15.4165 8.14521ZM12.0002 9.04255C10.1851 9.04255 8.71352 10.5142 8.71352 12.3292C8.71352 14.1443 10.1851 15.6153 12.0002 15.6153C13.8153 15.6153 15.2864 14.1443 15.2864 12.3292C15.2864 10.5142 13.8153 9.04255 12.0002 9.04255ZM12.0002 10.1959C13.1783 10.1959 14.1336 11.151 14.1336 12.3292C14.1336 13.5074 13.1783 14.4626 12.0002 14.4626C10.8219 14.4626 9.86684 13.5074 9.86684 12.3292C9.86684 11.151 10.8219 10.1959 12.0002 10.1959Z" fill="#F4F5F7"/>
</svg>
