<svg width="24" height="25" viewBox="0 0 24 25" fill="none" xmlns="http://www.w3.org/2000/svg">
<path opacity="0.1" fill-rule="evenodd" clip-rule="evenodd" d="M0 12.3291C0 5.70168 5.37258 0.329102 12 0.329102C18.6274 0.329102 24 5.70168 24 12.3291C24 18.9565 18.6274 24.3291 12 24.3291C5.37258 24.3291 0 18.9565 0 12.3291Z" fill="#F4F5F7"/>
<path fill-rule="evenodd" clip-rule="evenodd" d="M18.3996 12.3203C18.3996 12.7531 18.3555 13.1854 18.269 13.6067C18.1846 14.018 18.0596 14.4218 17.8958 14.8078C17.7359 15.187 17.5374 15.5524 17.3055 15.8932C17.0771 16.2318 16.8139 16.5495 16.5248 16.839C16.2351 17.1274 15.9164 17.3898 15.5779 17.6192C15.236 17.8495 14.8701 18.0477 14.4907 18.2084C14.1041 18.3713 13.6994 18.4961 13.2884 18.5804C12.8666 18.6671 12.4328 18.7114 11.9993 18.7114C11.5656 18.7114 11.1318 18.6671 10.7105 18.5804C10.2989 18.4961 9.89422 18.3713 9.50795 18.2084C9.12856 18.0477 8.76228 17.8495 8.42039 17.6192C8.08194 17.3898 7.76317 17.1274 7.47409 16.839C7.18471 16.5495 6.92156 16.2318 6.6928 15.8932C6.46216 15.5524 6.26339 15.187 6.10277 14.8078C5.93899 14.4218 5.81369 14.018 5.72899 13.6067C5.64337 13.1854 5.59961 12.7531 5.59961 12.3203C5.59961 11.8872 5.64335 11.454 5.72902 11.0337C5.81371 10.6223 5.93902 10.2179 6.10279 9.83252C6.26342 9.45306 6.46219 9.08733 6.69283 8.74654C6.92159 8.40765 7.18474 8.09057 7.47412 7.80065C7.7632 7.51229 8.08196 7.25049 8.42042 7.02144C8.7623 6.79018 9.12859 6.59205 9.50797 6.43101C9.89425 6.26777 10.2989 6.14264 10.7105 6.05902C11.1318 5.9729 11.5656 5.9292 11.9993 5.9292C12.4328 5.9292 12.8666 5.9729 13.2885 6.05902C13.6994 6.14267 14.1041 6.26779 14.4907 6.43101C14.8701 6.59202 15.2361 6.79018 15.5779 7.02144C15.9164 7.25049 16.2352 7.51229 16.5249 7.80065C16.814 8.09057 17.0771 8.40765 17.3055 8.74654C17.5374 9.08733 17.7359 9.45309 17.8958 9.83252C18.0596 10.2179 18.1846 10.6223 18.269 11.0337C18.3555 11.454 18.3996 11.8872 18.3996 12.3203ZM9.6673 7.38373C8.14314 8.10244 7.00558 9.50485 6.65087 11.195C6.79496 11.1963 9.07258 11.225 11.6968 10.5287C10.7508 8.85044 9.74012 7.48081 9.6673 7.38373ZM12.1496 11.3692C9.33541 12.2105 6.63494 12.1499 6.53807 12.1462C6.53649 12.2049 6.53369 12.2616 6.53369 12.3203C6.53369 13.7224 7.0634 15.0006 7.93407 15.9671C7.93219 15.9643 9.42792 13.3146 12.3774 12.3621C12.4487 12.3384 12.5212 12.3172 12.5931 12.2966C12.4559 11.9864 12.3062 11.6756 12.1496 11.3692ZM15.6089 8.22414C14.6466 7.37686 13.3831 6.86292 11.9993 6.86292C11.5552 6.86292 11.1242 6.9166 10.7114 7.01583C10.7933 7.12569 11.8199 8.48566 12.7546 10.1995C14.817 9.42747 15.5954 8.2441 15.6089 8.22414ZM12.9656 13.201C12.9535 13.205 12.9413 13.2085 12.9294 13.2128C9.70458 14.3354 8.65148 16.5978 8.64008 16.6225C9.56796 17.343 10.7318 17.7777 11.9993 17.7777C12.7562 17.7777 13.4772 17.6238 14.1332 17.3452C14.0522 16.8684 13.7347 15.1969 12.9656 13.201ZM15.0535 16.8465C16.2808 16.0196 17.1524 14.7064 17.3955 13.1853C17.283 13.1491 15.7539 12.6657 13.9897 12.9482C14.7066 14.9155 14.9979 16.5176 15.0535 16.8465ZM13.1753 11.0128C13.3022 11.273 13.425 11.5379 13.5385 11.8042C13.5788 11.8997 13.6182 11.9933 13.6566 12.0869C15.5342 11.851 17.384 12.2479 17.4631 12.2641C17.4506 10.9703 16.9871 9.78289 16.2202 8.85327C16.2099 8.8679 15.3333 10.1327 13.1753 11.0128Z" fill="#F4F5F7"/>
</svg>
