<svg width="24" height="25" viewBox="0 0 24 25" fill="none" xmlns="http://www.w3.org/2000/svg">
<path opacity="0.1" fill-rule="evenodd" clip-rule="evenodd" d="M0 12.3291C0 5.70168 5.37258 0.329102 12 0.329102C18.6274 0.329102 24 5.70168 24 12.3291C24 18.9565 18.6274 24.3291 12 24.3291C5.37258 24.3291 0 18.9565 0 12.3291Z" fill="#F4F5F7"/>
<path fill-rule="evenodd" clip-rule="evenodd" d="M11.6406 10.083L11.6658 10.4983L11.2461 10.4474C9.71843 10.2525 8.38383 9.59155 7.25067 8.48146L6.69668 7.93065L6.55399 8.3374C6.25181 9.24412 6.44487 10.2017 7.0744 10.8457C7.41015 11.2016 7.33461 11.2525 6.75544 11.0406C6.55399 10.9728 6.37772 10.922 6.36093 10.9474C6.30218 11.0067 6.50363 11.7779 6.66311 12.0829C6.88134 12.5066 7.32621 12.9218 7.81305 13.1676L8.22434 13.3625L7.73751 13.371C7.26746 13.371 7.25067 13.3794 7.30103 13.5574C7.46891 14.1082 8.13201 14.6929 8.87066 14.9471L9.39108 15.1251L8.93781 15.3963C8.26631 15.7861 7.4773 16.0064 6.68829 16.0233C6.31057 16.0318 6 16.0657 6 16.0911C6 16.1759 7.02404 16.6504 7.61999 16.8368C9.40786 17.3877 11.5315 17.1504 13.1263 16.2098C14.2595 15.5403 15.3926 14.2099 15.9214 12.9218C16.2068 12.2354 16.4922 10.9813 16.4922 10.3796C16.4922 9.98983 16.5174 9.93899 16.9874 9.47292C17.2644 9.20175 17.5246 8.90516 17.575 8.82042C17.6589 8.65941 17.6505 8.65941 17.2224 8.80347C16.509 9.05769 16.4083 9.02379 16.7608 8.64246C17.021 8.37129 17.3316 7.8798 17.3316 7.73574C17.3316 7.71032 17.2057 7.75269 17.063 7.82896C16.9119 7.9137 16.5761 8.04081 16.3243 8.11707L15.8711 8.26113L15.4598 7.98149C15.2331 7.82896 14.9142 7.65948 14.7463 7.60863C14.3182 7.49 13.6635 7.50694 13.2774 7.64253C12.2282 8.02386 11.5651 9.00685 11.6406 10.083Z" fill="#F4F5F7"/>
</svg>
