<svg width="24" height="25" viewBox="0 0 24 25" fill="none" xmlns="http://www.w3.org/2000/svg">
<path opacity="0.1" fill-rule="evenodd" clip-rule="evenodd" d="M0 12.3291C0 5.70168 5.37258 0.329102 12 0.329102C18.6274 0.329102 24 5.70168 24 12.3291C24 18.9565 18.6274 24.3291 12 24.3291C5.37258 24.3291 0 18.9565 0 12.3291Z" fill="#F4F5F7"/>
<path fill-rule="evenodd" clip-rule="evenodd" d="M17.0004 8.20386C17.5512 8.355 17.9849 8.80031 18.1321 9.36581C18.3996 10.3907 18.3996 12.5292 18.3996 12.5292C18.3996 12.5292 18.3996 14.6676 18.1321 15.6926C17.9849 16.2581 17.5512 16.7034 17.0004 16.8546C16.0023 17.1292 11.9996 17.1292 11.9996 17.1292C11.9996 17.1292 7.99692 17.1292 6.99874 16.8546C6.44797 16.7034 6.01423 16.2581 5.86703 15.6926C5.59961 14.6676 5.59961 12.5292 5.59961 12.5292C5.59961 12.5292 5.59961 10.3907 5.86703 9.36581C6.01423 8.80031 6.44797 8.355 6.99874 8.20386C7.99692 7.9292 11.9996 7.9292 11.9996 7.9292C11.9996 7.9292 16.0023 7.9292 17.0004 8.20386ZM10.7996 10.7292V14.7292L13.9996 12.7292L10.7996 10.7292Z" fill="#F4F5F7"/>
</svg>
