<svg width="48" height="48" viewBox="0 0 48 48" fill="none" xmlns="http://www.w3.org/2000/svg">
<g clip-path="url(#clip0_33_1965)">
<path d="M29.2 16.0001H42C43.0609 16.0001 44.0783 16.4215 44.8284 17.1716C45.5786 17.9218 46 18.9392 46 20.0001V24.2081C46.0005 24.7308 45.8986 25.2485 45.7 25.7321L39.51 40.7621C39.359 41.1285 39.1025 41.4418 38.7732 41.6622C38.4438 41.8826 38.0563 42.0002 37.66 42.0001H4C3.46957 42.0001 2.96086 41.7893 2.58579 41.4143C2.21071 41.0392 2 40.5305 2 40.0001V20.0001C2 19.4696 2.21071 18.9609 2.58579 18.5858C2.96086 18.2108 3.46957 18.0001 4 18.0001H10.964C11.2842 18.0001 11.5997 17.9233 11.8841 17.7761C12.1684 17.6289 12.4132 17.4156 12.598 17.1541L23.504 1.70005C23.6419 1.50468 23.8452 1.36517 24.0771 1.30683C24.309 1.24849 24.5541 1.27518 24.768 1.38205L28.396 3.19605C29.417 3.70638 30.2327 4.55068 30.7075 5.58868C31.1823 6.62669 31.2876 7.7959 31.006 8.90205L29.2 16.0001ZM14 21.1761V38.0001H36.32L42 24.2081V20.0001H29.2C28.5908 20 27.9897 19.8607 27.4425 19.593C26.8953 19.3252 26.4164 18.936 26.0425 18.455C25.6687 17.9741 25.4096 17.414 25.285 16.8177C25.1605 16.2214 25.1738 15.6045 25.324 15.0141L27.13 7.91805C27.1865 7.69671 27.1656 7.46268 27.0706 7.25491C26.9756 7.04714 26.8124 6.87815 26.608 6.77605L25.286 6.11605L15.866 19.4601C15.366 20.1681 14.726 20.7481 14 21.1761ZM10 22.0001H6V38.0001H10V22.0001Z" fill="#DD226D"/>
</g>
<defs>
<clipPath id="clip0_33_1965">
<rect width="48" height="48" fill="white"/>
</clipPath>
</defs>
</svg>
