<svg width="48" height="48" viewBox="0 0 48 48" fill="none" xmlns="http://www.w3.org/2000/svg">
<g clip-path="url(#clip0_33_1974)">
<path d="M38.7501 30.206C40.0478 27.1226 40.3465 23.71 39.6042 20.448C38.862 17.1861 37.1161 14.2388 34.6119 12.0205C32.1078 9.80219 28.9714 8.4245 25.6438 8.08109C22.3161 7.73769 18.9644 8.44583 16.0601 10.106L14.0761 6.63197C17.1113 4.8972 20.5485 3.98871 24.0445 3.99713C27.5405 4.00555 30.9732 4.9306 34.0001 6.67997C42.9801 11.864 46.4201 22.964 42.2341 32.22L44.9181 33.768L36.5881 38.196L36.2581 28.768L38.7501 30.206ZM9.25008 17.794C7.95237 20.8774 7.65364 24.2899 8.39591 27.5519C9.13818 30.8139 10.8841 33.7612 13.3882 35.9795C15.8923 38.1978 19.0287 39.5754 22.3564 39.9188C25.6841 40.2623 29.0357 39.5541 31.9401 37.894L33.9241 41.368C30.8888 43.1027 27.4517 44.0112 23.9557 44.0028C20.4596 43.9944 17.0269 43.0693 14.0001 41.32C5.02008 36.136 1.58008 25.036 5.76608 15.78L3.08008 14.234L11.4101 9.80597L11.7401 19.234L9.24808 17.796L9.25008 17.794ZM17.0001 28H28.0001C28.2653 28 28.5196 27.8946 28.7072 27.7071C28.8947 27.5195 29.0001 27.2652 29.0001 27C29.0001 26.7348 28.8947 26.4804 28.7072 26.2929C28.5196 26.1053 28.2653 26 28.0001 26H20.0001C18.674 26 17.4022 25.4732 16.4645 24.5355C15.5269 23.5978 15.0001 22.3261 15.0001 21C15.0001 19.6739 15.5269 18.4021 16.4645 17.4644C17.4022 16.5268 18.674 16 20.0001 16H22.0001V14H26.0001V16H31.0001V20H20.0001C19.7349 20 19.4805 20.1053 19.293 20.2929C19.1054 20.4804 19.0001 20.7348 19.0001 21C19.0001 21.2652 19.1054 21.5195 19.293 21.7071C19.4805 21.8946 19.7349 22 20.0001 22H28.0001C29.3262 22 30.5979 22.5268 31.5356 23.4644C32.4733 24.4021 33.0001 25.6739 33.0001 27C33.0001 28.3261 32.4733 29.5978 31.5356 30.5355C30.5979 31.4732 29.3262 32 28.0001 32H26.0001V34H22.0001V32H17.0001V28Z" fill="#DD226D"/>
</g>
<defs>
<clipPath id="clip0_33_1974">
<rect width="48" height="48" fill="white"/>
</clipPath>
</defs>
</svg>
