<svg width="48" height="48" viewBox="0 0 48 48" fill="none" xmlns="http://www.w3.org/2000/svg">
<g clip-path="url(#clip0_33_1983)">
<path d="M30.0001 10H34.0001C35.0609 10 36.0783 10.4214 36.8285 11.1716C37.5786 11.9217 38.0001 12.9391 38.0001 14V30.34C39.335 30.8118 40.4603 31.7404 41.1768 32.9616C41.8933 34.1828 42.155 35.618 41.9157 37.0136C41.6763 38.4091 40.9513 39.6751 39.8688 40.5877C38.7863 41.5004 37.416 42.001 36.0001 42.001C34.5842 42.001 33.2138 41.5004 32.1313 40.5877C31.0488 39.6751 30.3238 38.4091 30.0844 37.0136C29.8451 35.618 30.1068 34.1828 30.8233 32.9616C31.5399 31.7404 32.6651 30.8118 34.0001 30.34V14H30.0001V20L21.0001 12L30.0001 4V10ZM10.0001 17.66C8.66507 17.1882 7.53987 16.2596 6.82334 15.0384C6.10681 13.8172 5.84509 12.382 6.08444 10.9864C6.32379 9.59089 7.0488 8.32491 8.13132 7.41225C9.21383 6.49959 10.5842 5.99902 12.0001 5.99902C13.416 5.99902 14.7863 6.49959 15.8688 7.41225C16.9513 8.32491 17.6763 9.59089 17.9157 10.9864C18.155 12.382 17.8933 13.8172 17.1768 15.0384C16.4602 16.2596 15.335 17.1882 14.0001 17.66V30.34C15.335 30.8118 16.4602 31.7404 17.1768 32.9616C17.8933 34.1828 18.155 35.618 17.9157 37.0136C17.6763 38.4091 16.9513 39.6751 15.8688 40.5877C14.7863 41.5004 13.416 42.001 12.0001 42.001C10.5842 42.001 9.21383 41.5004 8.13132 40.5877C7.0488 39.6751 6.32379 38.4091 6.08444 37.0136C5.84509 35.618 6.10681 34.1828 6.82334 32.9616C7.53987 31.7404 8.66507 30.8118 10.0001 30.34V17.66ZM12.0001 14C12.5305 14 13.0392 13.7893 13.4143 13.4142C13.7893 13.0391 14.0001 12.5304 14.0001 12C14.0001 11.4696 13.7893 10.9609 13.4143 10.5858C13.0392 10.2107 12.5305 10 12.0001 10C11.4696 10 10.9609 10.2107 10.5858 10.5858C10.2108 10.9609 10.0001 11.4696 10.0001 12C10.0001 12.5304 10.2108 13.0391 10.5858 13.4142C10.9609 13.7893 11.4696 14 12.0001 14ZM12.0001 38C12.5305 38 13.0392 37.7893 13.4143 37.4142C13.7893 37.0391 14.0001 36.5304 14.0001 36C14.0001 35.4696 13.7893 34.9609 13.4143 34.5858C13.0392 34.2107 12.5305 34 12.0001 34C11.4696 34 10.9609 34.2107 10.5858 34.5858C10.2108 34.9609 10.0001 35.4696 10.0001 36C10.0001 36.5304 10.2108 37.0391 10.5858 37.4142C10.9609 37.7893 11.4696 38 12.0001 38ZM36.0001 38C36.5305 38 37.0392 37.7893 37.4143 37.4142C37.7893 37.0391 38.0001 36.5304 38.0001 36C38.0001 35.4696 37.7893 34.9609 37.4143 34.5858C37.0392 34.2107 36.5305 34 36.0001 34C35.4696 34 34.9609 34.2107 34.5858 34.5858C34.2108 34.9609 34.0001 35.4696 34.0001 36C34.0001 36.5304 34.2108 37.0391 34.5858 37.4142C34.9609 37.7893 35.4696 38 36.0001 38Z" fill="#DD226D"/>
</g>
<defs>
<clipPath id="clip0_33_1983">
<rect width="48" height="48" fill="white"/>
</clipPath>
</defs>
</svg>
