<svg width="24" height="25" viewBox="0 0 24 25" fill="none" xmlns="http://www.w3.org/2000/svg">
<g clip-path="url(#clip0_33_1230)">
<path d="M23.6986 11.4978C23.5448 11.3323 22.4414 9.98422 21.8466 9.25766C21.5302 8.87141 21.2803 8.56625 21.1753 8.43969L21.1669 8.42938L21.1575 8.41953C20.9128 8.14625 20.565 7.83313 20.0428 7.83313C19.9579 7.83422 19.8732 7.84111 19.7892 7.85375C19.7719 7.85609 19.7541 7.85891 19.7353 7.86078C19.6205 7.87344 19.2637 7.93109 18.4162 8.07078C17.76 8.17812 16.7705 8.34125 16.6205 8.35531L16.5872 8.35812L16.5548 8.36422C16.0861 8.44766 15.7758 8.65578 15.638 8.9825C15.5653 9.155 15.487 9.50516 15.7758 9.91344C15.8475 10.0175 16.0959 10.3616 16.523 10.9527C16.807 11.3464 17.1262 11.788 17.4019 12.1714L12.1828 13.3906L7.06219 5.00234L7.05281 4.98641L7.04203 4.97094L7.0214 4.94047C6.81187 4.63297 6.55125 4.25 5.79844 4.25C5.74547 4.25 5.69015 4.25 5.62828 4.25516C5.41265 4.26688 4.62422 4.32875 3.71156 4.40094C2.70422 4.48016 1.32562 4.58844 1.14656 4.59312H1.11234L1.07531 4.59688C0.646873 4.63859 0.336092 4.8125 0.151873 5.1125C-0.155158 5.61359 0.0853108 6.17609 0.164061 6.36078C0.32203 6.73437 1.76062 9.76719 3.02953 12.4442C3.87328 14.2227 4.74422 16.0616 4.81547 16.2247C4.94076 16.5294 5.15527 16.7891 5.43083 16.9697C5.70639 17.1503 6.03012 17.2434 6.35953 17.2367C6.51499 17.236 6.66993 17.2187 6.82172 17.1852H6.83156L6.84094 17.1828C7.49062 17.0244 9.55172 16.5012 11.0222 16.1239C11.1112 16.2795 11.205 16.4441 11.3034 16.6133C12.3314 18.418 13.08 19.7234 13.3266 20.0567C13.4531 20.2344 13.8281 20.75 14.5341 20.75C14.79 20.75 15.0244 20.6844 15.2719 20.6145L15.3436 20.5944H15.3492C15.8428 20.4537 22.4128 18.1494 22.7494 17.9998L22.7597 17.9952C23.0147 17.8822 23.4 17.7116 23.5181 17.2733C23.5955 16.9864 23.5266 16.6953 23.3128 16.408L23.3095 16.4037L23.3062 16.3995C23.2664 16.348 23.1187 16.1553 22.9186 15.8886C22.4906 15.3228 21.7992 14.4087 21.1917 13.6133C22.0059 13.4023 23.0105 13.1394 23.2252 13.0719C23.7628 12.9111 23.9255 12.5708 23.9752 12.3814C24.0122 12.2338 24.0605 11.8564 23.6986 11.4978V11.4978ZM8.69859 14.2255C7.86375 14.4209 7.28203 14.5573 6.9225 14.6427C6.60984 14.0173 5.99719 12.7841 5.39906 11.5803C4.005 8.77156 3.285 7.32547 2.90625 6.56937L3.28828 6.53656C3.91359 6.48266 4.77 6.40906 5.24672 6.36922C6.03234 7.69391 8.73047 12.2427 9.76078 13.977L8.69859 14.2255ZM17.0498 17.3492C15.915 17.7242 15.3 17.9291 14.9677 18.0402C14.6723 17.5555 14.0227 16.4689 13.4456 15.5L18.8691 14.1181C19.1034 14.4373 19.552 15.0425 20.4375 16.2242C19.5905 16.5073 18.1781 16.9752 17.0498 17.3492ZM19.6687 11.6478L18.555 10.1698C19.1958 10.0578 19.5647 9.99313 19.7808 9.95422L20.3433 10.6517L20.903 11.3464C20.5186 11.4397 20.0714 11.5489 19.6687 11.6478Z" fill="#121632"/>
</g>
<defs>
<clipPath id="clip0_33_1230">
<rect width="24" height="24" fill="white" transform="translate(0 0.5)"/>
</clipPath>
</defs>
</svg>
