<svg width="24" height="25" viewBox="0 0 24 25" fill="none" xmlns="http://www.w3.org/2000/svg">
<g clip-path="url(#clip0_33_1238)">
<path d="M12 24.456C11.658 24.456 11.34 24.367 11.043 24.213L8.014 22.475C7.559 22.233 7.787 22.145 7.924 22.101C8.538 21.903 8.652 21.859 9.29 21.506C9.358 21.462 9.45 21.484 9.518 21.528L11.841 22.871C11.931 22.915 12.046 22.915 12.114 22.871L21.201 17.787C21.291 17.743 21.337 17.655 21.337 17.545V7.39899C21.337 7.28899 21.292 7.20099 21.201 7.15699L12.114 2.09599C12.023 2.05199 11.909 2.05199 11.841 2.09599L2.754 7.15699C2.663 7.20099 2.617 7.31099 2.617 7.39899V17.545C2.617 17.633 2.663 17.743 2.754 17.787L5.236 19.174C6.58 19.834 7.422 19.064 7.422 18.294V8.27999C7.422 8.14799 7.536 8.01599 7.696 8.01599H8.857C8.994 8.01599 9.13 8.12599 9.13 8.27999V18.293C9.13 20.032 8.151 21.044 6.443 21.044C5.919 21.044 5.509 21.044 4.348 20.494L1.957 19.174C1.66888 19.0156 1.42828 18.7831 1.26005 18.5006C1.09181 18.2181 1.00204 17.8958 1 17.567V7.42099C1 6.76099 1.364 6.14499 1.957 5.81499L11.044 0.729986C11.3398 0.578273 11.6675 0.499146 12 0.499146C12.3325 0.499146 12.6602 0.578273 12.956 0.729986L22.044 5.81399C22.636 6.14399 23 6.75999 23 7.41999V17.566C23 18.226 22.636 18.842 22.044 19.173L12.956 24.256C12.6543 24.3868 12.3289 24.4542 12 24.454V24.456ZM14.801 17.479C10.816 17.479 9.996 15.719 9.996 14.222C9.996 14.09 10.11 13.958 10.269 13.958H11.453C11.59 13.958 11.703 14.046 11.703 14.178C11.886 15.344 12.41 15.916 14.824 15.916C16.737 15.916 17.557 15.498 17.557 14.508C17.557 13.936 17.329 13.518 14.346 13.232C11.863 12.989 10.315 12.462 10.315 10.547C10.315 8.76399 11.863 7.70699 14.46 7.70699C17.375 7.70699 18.81 8.67599 18.992 10.789C18.99 10.8605 18.9659 10.9297 18.923 10.987C18.878 11.031 18.81 11.075 18.741 11.075H17.557C17.4995 11.0736 17.444 11.0535 17.3989 11.0178C17.3538 10.9821 17.3215 10.9327 17.307 10.877C17.033 9.66699 16.327 9.26999 14.46 9.26999C12.364 9.26999 12.114 9.97399 12.114 10.502C12.114 11.141 12.41 11.339 15.234 11.691C18.035 12.043 19.356 12.549 19.356 14.441C19.333 16.379 17.694 17.479 14.801 17.479Z" fill="#121632"/>
</g>
<defs>
<clipPath id="clip0_33_1238">
<rect width="24" height="24" fill="white" transform="translate(0 0.5)"/>
</clipPath>
</defs>
</svg>
