<svg width="24" height="25" viewBox="0 0 24 25" fill="none" xmlns="http://www.w3.org/2000/svg">
<path d="M11.9904 0.5C9.74043 0.5 7.49043 0.56 5.39043 0.71C4.05759 0.796593 2.80024 1.35925 1.84756 2.2954C0.894887 3.23155 0.310327 4.47887 0.200434 5.81C-0.0395662 9.02 -0.0695662 12.2 0.140434 15.41C0.255434 16.8366 0.908098 18.1662 1.96634 19.1297C3.02458 20.0933 4.40936 20.6188 5.84043 20.6H8.99043V16.7H5.84043C4.91043 16.73 4.10043 16.07 4.01043 15.14C3.83043 12.14 3.86043 9.14 4.07043 6.14C4.13043 5.3 4.79043 4.67 5.63043 4.61C7.67043 4.46 9.83043 4.4 11.9904 4.4C14.1504 4.4 16.3104 4.49 18.3504 4.58C19.1604 4.64 19.8504 5.27 19.9104 6.11C20.1504 9.11 20.1504 12.11 19.9704 15.11C19.8504 16.04 19.0704 16.73 18.1404 16.7H14.9904L8.99043 20.6V24.5L14.9904 20.6H18.1404C21.1104 20.63 23.6004 18.35 23.8404 15.41C24.0504 12.23 24.0204 9.02 23.8104 5.84C23.7005 4.50887 23.116 3.26156 22.1633 2.3254C21.2106 1.38925 19.9533 0.826593 18.6204 0.74C16.4904 0.56 14.2404 0.5 11.9904 0.5V0.5ZM6.95043 9.26C6.59043 9.26 6.29043 9.56 6.29043 9.92V12.26C6.29043 12.59 6.47043 12.89 6.77043 13.04C8.39043 13.82 10.1904 14.24 11.9904 14.3C13.7904 14.24 15.5904 13.82 17.2104 13.04C17.5104 12.89 17.6904 12.59 17.6904 12.26V9.92C17.6904 9.83 17.6604 9.77 17.6004 9.71C17.569 9.62768 17.521 9.55265 17.4595 9.4895C17.3981 9.42634 17.3244 9.37639 17.2429 9.34269C17.1615 9.30899 17.0741 9.29226 16.9859 9.29352C16.8978 9.29477 16.8109 9.31399 16.7304 9.35C15.2304 10.01 13.6104 10.37 11.9604 10.4C10.3104 10.37 8.69043 9.98 7.19043 9.32C7.11584 9.28255 7.03388 9.26206 6.95043 9.26Z" fill="#121632"/>
</svg>
