<svg width="13" height="21" viewBox="0 0 13 21" fill="none" xmlns="http://www.w3.org/2000/svg">
<path d="M11.7646 5.02006C11.4625 3.6889 10.1968 1.13927 7.55078 1.59007C4.24321 2.15357 4.12071 4.94655 4.12071 6.56355C4.12071 7.85715 3.99012 13.7502 3.92483 16.535C3.64714 17.3599 2.81735 18.9801 1.71975 18.8625C4.39024 20.063 7.86924 19.5485 8.67774 16.535C9.48623 13.5215 8.55524 11.6595 5.61524 10.655C2.67524 9.65055 1.52375 7.88655 1.71975 7.39655C0.690747 11.5615 -0.0197263 15.8735 5.34577 17.025C6.79125 17.3517 9.98601 17.27 11.2012 14.33C12.4164 11.39 10.7439 8.98905 9.75571 8.15605C7.50171 5.92165 10.3192 3.35406 11.7646 5.02006Z" stroke="#121632" stroke-width="2" stroke-linecap="round" stroke-linejoin="round"/>
</svg>
