<svg width="540" height="222" viewBox="0 0 540 222" fill="none" xmlns="http://www.w3.org/2000/svg">
<rect x="316.634" y="5.58105" width="20.1561" height="53.4701" rx="10.078" transform="rotate(8.28448 316.634 5.58105)" fill="#121632"/>
<rect x="355.962" y="22.7998" width="20.1561" height="53.4701" rx="10.078" transform="rotate(84.0476 355.962 22.7998)" fill="#121632"/>
<circle cx="270" cy="110.665" r="96.3434" transform="rotate(-9.31302 270 110.665)" fill="#121632"/>
<rect x="193.117" y="95.0596" width="146.687" height="55.6806" rx="4" transform="rotate(-9.31302 193.117 95.0596)" fill="#DD226D"/>
<path d="M224.091 129.076L222.733 120.793C221.593 113.84 226.306 107.279 233.259 106.139V106.139C240.213 104.999 246.774 109.712 247.913 116.665L249.271 124.948" stroke="#121632" stroke-width="10" stroke-linecap="round"/>
<path d="M294.223 116.575L292.865 108.292C291.725 101.339 296.438 94.7781 303.391 93.6382V93.6382C310.344 92.4982 316.905 97.211 318.045 104.164L319.403 112.447" stroke="#121632" stroke-width="10" stroke-linecap="round"/>
</svg>
